<?xml version="1.0" standalone="no"?>
<svg viewBox="0 0 200 200" xmlns="http://www.w3.org/2000/svg">
  <path fill="#F2F4F8" d="M30.4,-49.9C37.5,-36.6,40.1,-25.3,45.9,-13.5C51.6,-1.8,60.4,10.4,60,21.9C59.6,33.5,50,44.5,38.4,48.1C26.9,51.6,13.5,47.7,1.1,46.2C-11.2,44.7,-22.5,45.6,-33.4,41.8C-44.4,38.1,-55,29.7,-61.3,18.1C-67.6,6.5,-69.5,-8.4,-64.5,-20.1C-59.5,-31.9,-47.7,-40.6,-35.8,-52.3C-23.9,-64.1,-11.9,-78.8,-0.2,-78.6C11.6,-78.4,23.2,-63.2,30.4,-49.9Z" transform="translate(100 100)" />
</svg>
